<?xml version="1.0" standalone="no"?>
<!DOCTYPE svg PUBLIC "-//W3C//DTD SVG 20010904//EN"
 "http://www.w3.org/TR/2001/REC-SVG-20010904/DTD/svg10.dtd">
<svg version="1.0" xmlns="http://www.w3.org/2000/svg"
 width="1280.000000pt" height="1178.000000pt" viewBox="0 0 1280.000000 1178.000000"
 preserveAspectRatio="xMidYMid meet">
<metadata>
Created by potrace 1.15, written by Peter Selinger 2001-2017
</metadata>
<g transform="translate(0.000000,1178.000000) scale(0.100000,-0.100000)"
fill="#000000" stroke="none">
<path d="M37 11756 c-150 -228 195 -864 769 -1416 231 -222 451 -397 734 -585
370 -246 727 -427 1130 -575 625 -229 1210 -331 1904 -334 l319 -1 19 -55 c60
-176 64 -359 10 -474 -37 -80 -112 -161 -202 -221 -37 -25 -150 -85 -252 -134
-356 -173 -449 -261 -503 -478 -79 -320 -73 -440 33 -723 36 -96 40 -116 46
-240 22 -440 136 -748 460 -1250 132 -204 168 -276 174 -344 l4 -52 -139 -139
c-514 -515 -679 -992 -481 -1390 17 -33 40 -74 53 -90 22 -29 23 -41 28 -260
4 -187 9 -245 25 -311 61 -239 170 -408 337 -521 l60 -41 69 -243 c193 -684
290 -879 526 -1062 24 -18 30 -27 18 -27 -22 0 -30 -28 -30 -101 0 -179 184
-319 502 -384 73 -15 93 -24 145 -65 96 -76 206 -147 280 -182 71 -33 160 -48
189 -31 11 6 41 3 89 -10 138 -36 306 -8 444 75 31 18 94 69 140 112 l84 79
132 -2 c161 -3 263 15 365 65 172 84 252 234 240 454 l-5 89 53 35 c118 79
231 221 293 370 60 145 110 379 152 712 22 176 24 182 50 198 116 69 222 180
285 298 77 148 105 277 105 496 0 143 1 156 23 190 61 97 94 206 102 342 22
331 -168 701 -564 1099 l-134 135 4 50 c6 67 40 132 200 384 164 256 270 464
331 647 61 186 85 309 101 528 13 178 14 185 61 307 93 246 97 366 25 662 -35
142 -66 205 -135 274 -74 74 -159 126 -395 243 -116 57 -235 123 -274 153 -86
65 -150 150 -176 235 -34 112 -23 281 28 433 l18 54 255 -3 c902 -9 1727 180
2519 576 396 197 723 411 1065 694 144 119 494 474 607 614 197 246 362 528
419 715 41 137 28 306 -26 326 -8 3 -83 -15 -167 -40 -326 -97 -724 -193
-1753 -421 -1351 -300 -1990 -491 -2505 -746 -318 -158 -560 -344 -676 -519
-15 -22 -29 -40 -32 -40 -3 0 -42 35 -87 78 -155 150 -355 262 -587 332 -35
10 -101 32 -148 48 -120 41 -216 56 -355 56 -156 -1 -208 -12 -456 -94 -272
-90 -388 -148 -550 -278 -120 -95 -246 -254 -299 -377 l-19 -45 -128 102
c-304 245 -618 442 -1063 667 -729 369 -1545 674 -3115 1166 -374 117 -711
223 -736 230 -10 4 -23 -4 -32 -19z"/>
</g>
</svg>
